HIERARCHY
ROOT Hips
{
	OFFSET 0.000000 0.000000 0.000000
	CHANNELS 6 Xposition Yposition Zposition Zrotation Yrotation Xrotation 
	JOINT LHipJoint
	{
		OFFSET 0.000000 0.000000 0.000000
		CHANNELS 3 Zrotation Yrotation Xrotation
		JOINT LeftUpLeg
		{
			OFFSET 1.363060 -1.794630 0.839290
			CHANNELS 3 Zrotation Yrotation Xrotation
			JOINT LeftLeg
			{
				OFFSET 2.448110 -6.726130 0.000000
				CHANNELS 3 Zrotation Yrotation Xrotation
				JOINT LeftFoot
				{
					OFFSET 2.562200 -7.039590 0.000000
					CHANNELS 3 Zrotation Yrotation Xrotation
					JOINT LeftToeBase
					{
						OFFSET 0.157640 -0.433110 2.322550
						CHANNELS 3 Zrotation Yrotation Xrotation
						End Site
						{
							OFFSET 0.000000 0.000000 0.000000
						}
					}
				}
			}
		}
	}
	JOINT RHipJoint
	{
		OFFSET 0.000000 0.000000 0.000000
		CHANNELS 3 Zrotation Yrotation Xrotation
		JOINT RightUpLeg
		{
			OFFSET -1.305520 -1.794630 0.839290
			CHANNELS 3 Zrotation Yrotation Xrotation
			JOINT RightLeg
			{
				OFFSET -2.542530 -6.985550 0.000000
				CHANNELS 3 Zrotation Yrotation Xrotation
				JOINT RightFoot
				{
					OFFSET -2.568260 -7.056230 0.000000
					CHANNELS 3 Zrotation Yrotation Xrotation
					JOINT RightToeBase
					{
						OFFSET -0.164730 -0.452590 2.363150
						CHANNELS 3 Zrotation Yrotation Xrotation
						End Site
						{
							OFFSET 0.000000 0.000000 0.000000
						}
					}
				}
			}
		}
	}
	JOINT LowerBack
	{
		OFFSET 0.000000 0.000000 0.000000
		CHANNELS 3 Zrotation Yrotation Xrotation
		JOINT Spine
		{
			OFFSET 0.028270 2.035590 -0.193380
			CHANNELS 3 Zrotation Yrotation Xrotation
			JOINT Spine1
			{
				OFFSET 0.056720 2.048850 -0.042750
				CHANNELS 3 Zrotation Yrotation Xrotation
				JOINT Neck
				{
					OFFSET 0.000000 0.000000 0.000000
					CHANNELS 3 Zrotation Yrotation Xrotation
					JOINT Neck1
					{
						OFFSET -0.054170 1.746240 0.172020
						CHANNELS 3 Zrotation Yrotation Xrotation
						JOINT Head
						{
							OFFSET 0.104070 1.761360 -0.123970
							CHANNELS 3 Zrotation Yrotation Xrotation
							End Site
							{
								OFFSET 0.000000 0.000000 0.000000
							}
						}
					}
				}
				JOINT LeftShoulder
				{
					OFFSET 0.000000 0.000000 0.000000
					CHANNELS 3 Zrotation Yrotation Xrotation
					JOINT LeftArm
					{
						OFFSET 3.362410 1.200890 -0.311210
						CHANNELS 3 Zrotation Yrotation Xrotation
						JOINT LeftForeArm
						{
							OFFSET 4.983000 -0.000000 -0.000000
							CHANNELS 3 Zrotation Yrotation Xrotation
							JOINT LeftHand
							{
								OFFSET 3.483560 -0.000000 -0.000000
								CHANNELS 3 Zrotation Yrotation Xrotation
								JOINT LeftFingerBase
								{
									OFFSET 0.000000 0.000000 0.000000
									CHANNELS 3 Zrotation Yrotation Xrotation
									JOINT LeftHandIndex1
									{
										OFFSET 0.715260 -0.000000 -0.000000
										CHANNELS 3 Zrotation Yrotation Xrotation
										End Site
										{
											OFFSET 0.000000 0.000000 0.000000
										}
									}
								}
								JOINT LThumb
								{
									OFFSET 0.000000 0.000000 0.000000
									CHANNELS 3 Zrotation Yrotation Xrotation
									End Site
									{
										OFFSET 0.000000 0.000000 0.000000
									}
								}
							}
						}
					}
				}
				JOINT RightShoulder
				{
					OFFSET 0.000000 0.000000 0.000000
					CHANNELS 3 Zrotation Yrotation Xrotation
					JOINT RightArm
					{
						OFFSET -3.136600 1.374050 -0.404650
						CHANNELS 3 Zrotation Yrotation Xrotation
						JOINT RightForeArm
						{
							OFFSET -5.241900 -0.000000 -0.000000
							CHANNELS 3 Zrotation Yrotation Xrotation
							JOINT RightHand
							{
								OFFSET -3.444170 -0.000000 -0.000000
								CHANNELS 3 Zrotation Yrotation Xrotation
								JOINT RightFingerBase
								{
									OFFSET 0.000000 0.000000 0.000000
									CHANNELS 3 Zrotation Yrotation Xrotation
									JOINT RightHandIndex1
									{
										OFFSET -0.622530 -0.000000 -0.000000
										CHANNELS 3 Zrotation Yrotation Xrotation
										End Site
										{
											OFFSET 0.000000 0.000000 0.000000
										}
									}
								}
								JOINT RThumb
								{
									OFFSET 0.000000 0.000000 0.000000
									CHANNELS 3 Zrotation Yrotation Xrotation
									End Site
									{
										OFFSET 0.000000 0.000000 0.000000
									}
								}
							}
						}
					}
				}
			}
		}
	}
}
MOTION
Frames: 12
Frame Time: 0.008333
-18.049008 15.946606 0.114847 27.277643 86.388325 44.355111 -8.047613 -0.541065 3.914077 -14.141065 -4.785172 -58.932901 -1.320974 1.944762 43.922612 1.669542 6.780808 -8.502253 0.228400 -0.000001 -17.445800 12.153984 -5.966456 1.224860 -0.126741 -5.042396 6.266405 0.105835 -2.424674 27.892061 -0.482181 10.887238 29.095080 6.676600 -0.000000 -79.006200 -12.046028 2.358273 -6.449505 -3.198775 3.103747 -4.816799 -4.519846 2.942065 -1.226788 5.142932 -1.508849 -9.866479 -1.966307 -0.122553 -0.714892 0.000000 0.000000 0.000000 -5.956557 18.793160 3.224537 -44.573941 32.475132 24.251287 -5.273456 -15.351521 -0.039332 -4.636718 11.236533 -0.446813 -0.151556 -0.108391 -0.000000 0.000000 0.000000 0.000000 0.000000 0.000000 0.000000 3.358909 7.167349 1.123318 45.768161 47.381187 23.835696 0.650127 78.866818 -0.023861 -2.922965 8.573102 -0.234664 0.020892 -0.583788 -0.000000 0.000000 0.000000 0.000000 0.000000 0.000000 0.000000 
-17.851094 15.961956 0.101551 29.489532 86.262503 46.005545 -7.953975 -0.437670 3.579650 -14.913372 -4.187352 -57.617949 -1.326752 1.947243 44.630231 1.726653 6.998682 -9.337757 0.074900 0.000000 -16.263700 12.474147 -5.741620 1.002045 -1.003356 -5.786497 4.388641 -0.165092 -2.604114 32.635691 -0.823903 8.494610 30.123297 5.558600 0.000000 -76.228900 -12.118136 2.251279 -5.856425 -3.243645 2.998212 -4.737950 -4.769027 2.849051 -1.395237 5.544240 -1.096722 -9.795389 -2.215055 -0.142929 -0.717303 0.000000 0.000000 0.000000 -6.642993 18.272691 3.346403 -45.558951 30.187758 23.854241 -5.281664 -14.001969 -0.035721 -4.173291 10.783757 -0.384170 -0.149520 -0.092645 -0.000000 0.000000 0.000000 0.000000 0.000000 0.000000 0.000000 4.601472 7.827818 1.219932 48.210949 45.504706 24.773204 0.692984 77.285275 -0.025960 -3.542832 8.826578 -0.293798 0.042606 -0.577951 -0.000000 0.000000 0.000000 0.000000 0.000000 0.000000 0.000000 
-17.658568 15.976713 0.085649 31.734073 86.153445 47.669488 -7.865379 -0.316296 3.251566 -15.658850 -3.576737 -56.239503 -1.347611 1.946231 45.239244 1.765259 7.105244 -10.217708 -0.094001 0.000000 -15.140300 12.776851 -5.470469 0.739196 -1.847932 -6.620318 2.462428 -0.407206 -2.784888 37.419604 -1.187297 5.166117 30.399757 3.745000 -0.000000 -73.233200 -12.124732 2.143163 -5.221006 -3.269011 2.887196 -4.651852 -5.004424 2.748103 -1.575375 5.889353 -0.688424 -9.688948 -2.462016 -0.163363 -0.709985 0.000000 0.000000 0.000000 -7.276428 17.703715 3.478419 -46.640171 27.673878 23.310280 -5.283085 -12.505148 -0.031687 -3.566829 10.264916 -0.310413 -0.146120 -0.075696 -0.000000 0.000000 0.000000 0.000000 0.000000 0.000000 0.000000 5.784022 8.445715 1.266778 50.666394 43.477119 25.509404 0.741205 75.393752 -0.029067 -4.304146 9.155149 -0.370459 0.063958 -0.571080 -0.000000 0.000000 0.000000 0.000000 0.000000 0.000000 0.000000 
-17.470608 15.991370 0.067092 34.000929 86.068500 49.355950 -7.785232 -0.180955 2.940441 -16.349713 -2.981187 -54.827548 -1.380140 1.943225 45.753758 1.787736 7.111841 -11.121893 -0.269200 -0.000001 -14.137001 13.054171 -5.163752 0.446479 -2.630159 -7.496236 0.492523 -0.626743 -2.980400 42.179865 -1.567718 1.110077 29.814212 1.435900 -0.000001 -69.894800 -12.063908 2.036615 -4.568216 -3.275602 2.773351 -4.561641 -5.223328 2.641287 -1.757794 6.179941 -0.299985 -9.551113 -2.701252 -0.183278 -0.693246 0.000000 0.000000 0.000000 -7.854312 17.091549 3.609251 -47.790208 24.938311 22.599130 -5.270713 -10.900590 -0.027268 -2.775051 9.670840 -0.224946 -0.140592 -0.058011 -0.000000 0.000000 0.000000 0.000000 0.000000 0.000000 0.000000 6.891202 8.987670 1.268929 53.110624 41.328530 26.010877 0.793061 73.166946 -0.033030 -5.198032 9.566990 -0.467056 0.084121 -0.562919 -0.000000 0.000000 0.000000 0.000000 0.000000 0.000000 0.000000 
-17.286301 16.006586 0.045967 36.282923 86.010581 51.080944 -7.715701 -0.035537 2.655829 -16.966960 -2.427623 -53.413593 -1.421557 1.939348 46.174487 1.797922 7.038346 -12.029549 -0.442000 -0.000000 -13.309000 13.301251 -4.834060 0.137101 -3.325133 -8.368512 -1.531435 -0.832378 -3.199333 46.854709 -1.954684 -3.318411 28.314234 -1.029200 0.000000 -66.065099 -11.938000 1.934156 -3.925380 -3.265249 2.659607 -4.468975 -5.423064 2.531404 -1.925419 6.420018 0.053912 -9.394547 -2.926236 -0.201935 -0.669967 0.000000 0.000000 0.000000 -8.370779 16.477323 3.727765 -48.978652 21.942731 21.780541 -5.234175 -9.228462 -0.022583 -1.764515 8.985416 -0.129367 -0.132113 -0.040187 -0.000000 0.000000 0.000000 0.000000 0.000000 0.000000 0.000000 7.904315 9.423879 1.230373 55.531863 39.096547 26.239471 0.845370 70.588663 -0.037581 -6.203303 10.061149 -0.584892 0.102187 -0.553028 -0.000000 0.000000 0.000000 0.000000 0.000000 0.000000 0.000000 
-17.104735 16.023120 0.022469 38.568447 85.978786 52.855189 -7.658415 0.116469 2.405647 -17.500634 -1.938104 -52.026422 -1.469675 1.935072 46.497536 1.800136 6.909072 -12.918900 -0.605000 0.000000 -12.701200 13.515197 -4.494293 -0.172456 -3.911841 -9.191077 -3.628917 -1.033297 -3.443566 51.382247 -2.332160 -7.700152 25.944927 -3.263400 -0.000000 -61.653300 -11.751282 1.839840 -3.321746 -3.240882 2.550435 -4.379887 -5.606327 2.422671 -2.076608 6.618447 0.365554 -9.219139 -3.132964 -0.219050 -0.639311 0.000000 0.000000 0.000000 -8.844097 15.830801 3.820627 -50.162342 18.767793 20.825379 -5.168955 -7.588609 -0.017897 -0.504201 8.195386 -0.027983 -0.120198 -0.023157 -0.000000 0.000000 0.000000 0.000000 0.000000 0.000000 0.000000 8.821266 9.737241 1.168411 57.914085 36.810059 26.156181 0.895103 67.654530 -0.042413 -7.301226 10.624509 -0.724771 0.117709 -0.540929 -0.000000 0.000000 0.000000 0.000000 0.000000 0.000000 0.000000 
-16.924864 16.041718 -0.002985 40.843447 85.969446 54.686242 -7.613956 0.272076 2.195493 -17.949234 -1.528344 -50.690863 -1.522865 1.930248 46.716846 1.798541 6.748969 -13.769785 -0.753400 0.000000 -12.343199 13.695148 -4.155103 -0.464279 -4.371796 -9.920684 -5.823588 -1.236352 -3.707716 55.704118 -2.680668 -11.654643 22.849623 -4.946000 0.000000 -56.665101 -11.511380 1.756290 -2.784377 -3.205686 2.449213 -4.298490 -5.775855 2.318543 -2.205073 6.785853 0.630239 -9.030517 -3.317995 -0.234319 -0.602323 0.000000 0.000000 0.000000 -9.282042 15.148033 3.879675 -51.310443 15.460141 19.764228 -5.071107 -6.074367 -0.013529 1.014959 7.281968 0.071102 -0.104711 -0.007862 -0.000000 0.000000 0.000000 0.000000 0.000000 0.000000 0.000000 9.640754 9.918795 1.097864 60.248778 34.500357 25.716711 0.938871 64.372509 -0.047207 -8.471233 11.229523 -0.885791 0.130381 -0.526062 -0.000000 0.000000 0.000000 0.000000 0.000000 0.000000 0.000000 
-16.746112 16.063016 -0.029886 43.097208 85.977690 56.581434 -7.581594 0.428531 2.027490 -18.317805 -1.206333 -49.425633 -1.580093 1.924199 46.825410 1.796299 6.578925 -14.564553 -0.884701 0.000000 -12.245800 13.841933 -3.822502 -0.721767 -4.690431 -10.518208 -8.136321 -1.443724 -3.980934 59.769085 -2.980468 -14.913137 19.243857 -5.904500 -0.000000 -51.215700 -11.229382 1.682672 -2.332891 -3.162611 2.356168 -4.222982 -5.932623 2.219942 -2.288807 6.934769 0.843110 -8.852347 -3.477975 -0.247178 -0.565668 0.000000 0.000000 0.000000 -9.679642 14.518079 3.899662 -52.402224 11.949205 18.785577 -4.937097 -4.749029 -0.009852 2.759133 6.239235 0.154780 -0.086209 0.005102 -0.000000 0.000000 0.000000 0.000000 0.000000 0.000000 0.000000 10.359682 9.965036 1.023216 62.534605 32.214153 24.874961 0.972817 60.764013 -0.051663 -9.692752 11.836568 -1.064651 0.140022 -0.507828 -0.000000 0.000000 0.000000 0.000000 0.000000 0.000000 0.000000 
-16.567944 16.087714 -0.057606 45.319293 85.999701 58.540353 -7.560602 0.584020 1.901997 -18.614235 -0.970749 -48.237483 -1.640840 1.915310 46.812863 1.795179 6.413361 -15.288181 -0.998000 -0.000000 -12.397100 13.956317 -3.499412 -0.930433 -4.856831 -10.952734 -10.576695 -1.652255 -4.249760 63.532433 -3.213823 -17.334644 15.369775 -6.130100 -0.000001 -45.465499 -10.914227 1.619431 -1.982618 -3.114352 2.272254 -4.158421 -6.083009 2.127813 -2.335976 7.079195 1.008939 -8.679094 -3.613558 -0.257871 -0.527559 0.000000 0.000000 0.000000 -10.052613 13.883930 3.879886 -53.423186 8.365596 17.839488 -4.776055 -3.722643 -0.007146 4.692683 5.061886 0.209744 -0.065835 0.015045 -0.000000 0.000000 0.000000 0.000000 0.000000 0.000000 0.000000 10.996693 9.888119 0.965703 64.756030 29.971549 23.586785 0.996072 56.862175 -0.055552 -10.956527 12.392548 -1.255845 0.146948 -0.485895 -0.000000 0.000000 0.000000 0.000000 0.000000 0.000000 0.000000 
-16.389812 16.116346 -0.085442 47.521922 86.032619 60.574823 -7.549340 0.737743 1.816370 -18.848335 -0.812057 -47.118785 -1.705286 1.901551 46.667634 1.795437 6.258679 -15.930229 -1.093500 -0.000001 -12.761200 14.039804 -3.185666 -1.081061 -4.869773 -11.206054 -13.136906 -1.854722 -4.501489 66.954906 -3.366536 -18.879892 11.456821 -5.742901 0.000000 -39.612900 -10.575206 1.565238 -1.739002 -3.062890 2.196445 -4.108770 -6.231405 2.041085 -2.358795 7.230241 1.143448 -8.500770 -3.726358 -0.266761 -0.485201 0.000000 0.000000 0.000000 -10.400770 13.180579 3.828153 -54.377052 4.839941 16.846627 -4.599097 -3.076574 -0.005500 6.754708 3.740703 0.220989 -0.045072 0.021629 0.000000 0.000000 0.000000 0.000000 0.000000 0.000000 0.000000 11.567430 9.715101 0.943236 66.898106 27.777435 21.797588 1.008587 52.712521 -0.058708 -12.248173 12.839639 -1.450169 0.151304 -0.460243 -0.000000 0.000000 0.000000 0.000000 0.000000 0.000000 0.000000 
-16.211419 16.149283 -0.112688 49.740969 86.075655 62.713549 -7.545673 0.889051 1.764033 -19.028952 -0.715606 -46.048916 -1.774317 1.880940 46.377603 1.795932 6.113245 -16.485249 -1.171900 -0.000000 -13.279100 14.094132 -2.878803 -1.171848 -4.737881 -11.274144 -15.791458 -2.041763 -4.726294 70.000514 -3.428802 -19.574692 7.701543 -4.936800 -0.000000 -33.887300 -10.223423 1.513771 -1.593119 -3.009654 2.122742 -4.068137 -6.379224 1.954609 -2.342237 7.401843 1.245548 -8.337266 -3.817013 -0.273669 -0.444857 0.000000 0.000000 0.000000 -10.716573 12.490309 3.749957 -55.267686 1.306174 15.936267 -4.415455 -2.821899 -0.004936 8.834688 2.311400 0.177115 -0.026011 0.025519 0.000000 0.000000 0.000000 0.000000 0.000000 0.000000 0.000000 12.087477 9.457488 0.956610 68.944916 25.677995 19.480480 1.011020 48.361676 -0.061002 -13.555466 13.126754 -1.636320 0.153279 -0.431003 -0.000000 0.000000 0.000000 0.000000 0.000000 0.000000 0.000000 
-16.032604 16.186902 -0.138735 52.040087 86.129431 65.000200 -7.548917 1.037945 1.736550 -19.160986 -0.660632 -44.991195 -1.849375 1.851530 45.929084 1.794237 5.968081 -16.952815 -1.233400 -0.000000 -13.873800 14.119910 -2.577014 -1.206259 -4.477970 -11.166048 -18.493396 -2.203846 -4.917107 72.633280 -3.395847 -19.483012 4.257685 -3.924700 0.000001 -28.512100 -9.865028 1.460202 -1.529054 -2.955114 2.045984 -4.036936 -6.528538 1.863364 -2.300515 7.602216 1.328841 -8.177170 -3.888200 -0.279037 -0.403609 0.000000 0.000000 0.000000 -10.991778 11.749343 3.659096 -56.110090 -2.123069 14.990017 -4.237293 -2.985057 -0.005264 10.832360 0.794094 0.072823 -0.010476 0.027480 0.000000 0.000000 0.000000 0.000000 0.000000 0.000000 0.000000 12.574860 9.142957 1.018155 70.868097 23.682224 16.611013 1.006304 43.856898 -0.062387 -14.861643 13.218919 -1.802090 0.152977 -0.398893 -0.000000 0.000000 0.000000 0.000000 0.000000 0.000000 0.000000 
